<svg id="Layer_2" data-name="Layer 2" xmlns="http://www.w3.org/2000/svg" xmlns:xlink="http://www.w3.org/1999/xlink" viewBox="0 0 323.08 96.53"><defs><style>.cls-1,.cls-5{isolation:isolate;}.cls-1{font-size:45.19px;fill:#040700;font-family:Phosphate-Inline, Phosphate;}.cls-2{letter-spacing:-0.01em;}.cls-3{letter-spacing:-0.05em;}.cls-4{letter-spacing:0em;}.cls-5{font-size:56.96px;fill:#000405;font-family:OCRAStd, OCR A Std;}.cls-6,.cls-7{fill-rule:evenodd;}.cls-6{fill:url(#linear-gradient);}.cls-7{fill:#88c754;}.cls-8{fill:#ffbeaa;}.cls-9{fill:#faa68f;}.cls-10{fill:#93d437;}.cls-11{fill:#75bf00;}.cls-12{fill:url(#linear-gradient-2);}.cls-13{fill:url(#linear-gradient-3);}.cls-14{fill:#55506e;}.cls-15{fill:#47435c;}</style><linearGradient id="linear-gradient" x1="37.16" y1="1234.61" x2="37.16" y2="1177.37" gradientTransform="translate(0 -1142)" gradientUnits="userSpaceOnUse"><stop offset="0" stop-color="#1c75bc"/><stop offset="1" stop-color="#00aeef"/></linearGradient><linearGradient id="linear-gradient-2" x1="33.31" y1="1200.87" x2="49.05" y2="1200.87" xlink:href="#linear-gradient"/><linearGradient id="linear-gradient-3" x1="41.2" y1="1200.92" x2="49.07" y2="1200.92" xlink:href="#linear-gradient"/></defs><title>black.11</title><g id="Layer_3" data-name="Layer 3"><text class="cls-1" transform="translate(108.58 84.15)">R<tspan class="cls-2" x="26.35" y="0">E</tspan><tspan class="cls-3" x="46.68" y="0">S</tspan><tspan x="64.99" y="0">T</tspan><tspan class="cls-4" x="86.05" y="0">R</tspan><tspan x="112.17" y="0">OOM</tspan></text><text class="cls-5" transform="translate(118.04 47.67)">SMART</text><g id="MAIN"><g id="Layer_1" data-name="Layer 1"><path class="cls-6" d="M31.73,45.5c-8.15,1.25-17.24,6.89-17.24,17.86A17.19,17.19,0,0,0,31.73,80.59H62.12l9.72,12H31.73a29.21,29.21,0,0,1-8.25-57.24Z" transform="translate(-2.48 -8.52)"/><path class="cls-7" d="M100.66,9.15h8.67v8.67h-8.67ZM79.56,34.32a30.38,30.38,0,0,1,9.09,2.51V47.07h12a29.9,29.9,0,0,1,4.91,16.29A29,29,0,0,1,80.09,92.29l-9.61-11.8h5.85A17.25,17.25,0,0,0,93.56,63.26c0-13.37-12.74-19.43-22.66-16.09-.21-9.5-6.58-19-17.66-19-8.35,0-13.78,6.16-16.39,13.16L28.49,31.08a28.14,28.14,0,0,1,51.07,3.24Zm12.33-4.38h13.79V43.72H91.89Zm16.5-7.84H120V33.7h-11.6Z" transform="translate(-2.48 -8.52)"/></g><g id="Layer_3-2" data-name="Layer 3"><path class="cls-8" d="M41.23,71.82A1.2,1.2,0,0,1,40,70.57v-5a1.26,1.26,0,0,1,2.51,0v5A1.35,1.35,0,0,1,41.23,71.82Z" transform="translate(-2.48 -8.52)"/><path class="cls-8" d="M64.42,71.82a1.2,1.2,0,0,1-1.25-1.25v-5a1.25,1.25,0,0,1,2.5,0v5A1.34,1.34,0,0,1,64.42,71.82Z" transform="translate(-2.48 -8.52)"/><path class="cls-9" d="M41.23,64.3v7.42a1.22,1.22,0,0,0,1.26-1.26v-5A1.35,1.35,0,0,0,41.23,64.3Z" transform="translate(-2.48 -8.52)"/><path class="cls-9" d="M64.42,64.3v7.42a1.21,1.21,0,0,0,1.25-1.26v-5A1.34,1.34,0,0,0,64.42,64.3Z" transform="translate(-2.48 -8.52)"/><path class="cls-10" d="M64.42,66.81a1.43,1.43,0,0,1-1.15-.73L56.59,52.81a1.11,1.11,0,0,1,.1-1.25,1.15,1.15,0,0,1,1-.63H71a1.13,1.13,0,0,1,1,.63,1.75,1.75,0,0,1,.11,1.25L65.57,66.18A1.2,1.2,0,0,1,64.42,66.81Z" transform="translate(-2.48 -8.52)"/><path class="cls-11" d="M71,51H64.32V66.81a1.42,1.42,0,0,0,1.14-.73l6.69-13.27A1.09,1.09,0,0,0,72,51.56,1.13,1.13,0,0,0,71,51Z" transform="translate(-2.48 -8.52)"/><path class="cls-12" d="M47.81,66.81H34.55a1.15,1.15,0,0,1-1-.63,1.71,1.71,0,0,1-.1-1.25l6.68-13.27a1.27,1.27,0,0,1,2.3,0l6.69,13.27A1.13,1.13,0,0,1,49,66.18,1.44,1.44,0,0,1,47.81,66.81Z" transform="translate(-2.48 -8.52)"/><path class="cls-13" d="M42.28,51.77A1.29,1.29,0,0,0,41.13,51V66.81h6.68a1.15,1.15,0,0,0,1-.63,1.71,1.71,0,0,0,.1-1.25Z" transform="translate(-2.48 -8.52)"/><path class="cls-14" d="M52.93,75.48a1.11,1.11,0,0,1-1.25-1V41.74a1.18,1.18,0,0,1,1.25-1.05,1.11,1.11,0,0,1,1.25,1.05V74.43A1.11,1.11,0,0,1,52.93,75.48Z" transform="translate(-2.48 -8.52)"/><path class="cls-15" d="M54.18,74.54V41.74a1.18,1.18,0,0,0-1.25-1.05V75.48C53.66,75.48,54.18,75.06,54.18,74.54Z" transform="translate(-2.48 -8.52)"/><path class="cls-8" d="M41.23,53.54a5,5,0,0,1-5-5,5,5,0,0,1,5-5,5,5,0,1,1,0,10Z" transform="translate(-2.48 -8.52)"/><path class="cls-8" d="M64.42,53.54a5,5,0,0,1-5-5,5,5,0,1,1,10,0A5,5,0,0,1,64.42,53.54Z" transform="translate(-2.48 -8.52)"/><path class="cls-9" d="M41.23,43.62v9.92a5,5,0,0,0,5-5A4.93,4.93,0,0,0,41.23,43.62Z" transform="translate(-2.48 -8.52)"/><path class="cls-9" d="M64.42,43.62v9.92a5,5,0,0,0,5-5A4.92,4.92,0,0,0,64.42,43.62Z" transform="translate(-2.48 -8.52)"/></g></g></g></svg>