<?xml version="1.0" encoding="utf-8"?>
<!-- Generator: Adobe Illustrator 24.0.2, SVG Export Plug-In . SVG Version: 6.00 Build 0)  -->
<svg version="1.1" id="Layer_2_1_" xmlns="http://www.w3.org/2000/svg" xmlns:xlink="http://www.w3.org/1999/xlink" x="0px" y="0px"
	 viewBox="0 0 323.1 96.5" style="enable-background:new 0 0 323.1 96.5;" xml:space="preserve">
<style type="text/css">
	.st0{fill:#FFFFFF;}
	.st1{font-family:'Phosphate-Inline';}
	.st2{font-size:45.19px;}
	.st3{letter-spacing:-2;}
	.st4{font-family:'OCRAStd';}
	.st5{font-size:56.96px;}
	.st6{fill-rule:evenodd;clip-rule:evenodd;fill:url(#SVGID_1_);}
	.st7{fill-rule:evenodd;clip-rule:evenodd;fill:#88C754;}
	.st8{fill:#FFBEAA;}
	.st9{fill:#FAA68F;}
	.st10{fill:#93D437;}
	.st11{fill:#75BF00;}
	.st12{fill:url(#SVGID_2_);}
	.st13{fill:url(#SVGID_3_);}
	.st14{fill:#55506E;}
	.st15{fill:#47435C;}
</style>
<title>black.11</title>
<g id="Layer_3">
	<text transform="matrix(1 0 0 1 108.58 84.15)" class="st0 st1 st2">R</text>
	<text transform="matrix(1 0 0 1 134.93 84.15)" class="st0 st1 st2">E</text>
	<text transform="matrix(1 0 0 1 155.26 84.15)" class="st0 st1 st2 st3">S</text>
	<text transform="matrix(1 0 0 1 173.57 84.15)" class="st0 st1 st2">T</text>
	<text transform="matrix(1 0 0 1 194.63 84.15)" class="st0 st1 st2">R</text>
	<text transform="matrix(1 0 0 1 220.75 84.15)" class="st0 st1 st2">OOM</text>
	<text transform="matrix(1 0 0 1 118.04 47.67)" class="st0 st4 st5">SMART</text>
	<g id="MAIN">
		<g id="Layer_1">
			
				<linearGradient id="SVGID_1_" gradientUnits="userSpaceOnUse" x1="37.1642" y1="-1136.59" x2="37.1642" y2="-1079.35" gradientTransform="matrix(1 0 0 -1 -2.48 -1052.52)">
				<stop  offset="0" style="stop-color:#1C75BC"/>
				<stop  offset="1" style="stop-color:#00AEEF"/>
			</linearGradient>
			<path class="st6" d="M29.2,37C21.1,38.2,12,43.9,12,54.8c0,9.5,7.7,17.2,17.1,17.2c0,0,0.1,0,0.1,0h30.4l9.7,12H29.2
				C13.1,84.1,0,71,0,54.9c0-13,8.5-24.4,21-28.1L29.2,37z"/>
			<path class="st7" d="M98.2,0.6h8.7v8.7h-8.7V0.6z M77.1,25.8c3.1,0.4,6.2,1.2,9.1,2.5v10.2h12c3.2,4.8,4.9,10.5,4.9,16.3
				c0.1,14.7-10.9,27.1-25.5,28.9L68,72h5.8c9.5,0,17.2-7.7,17.2-17.2c0-13.4-12.7-19.4-22.7-16.1c-0.2-9.5-6.6-19-17.7-19
				c-8.4,0-13.8,6.2-16.4,13.2L26,22.6C33.4,8.9,50.4,3.7,64.1,11.1C70.1,14.3,74.7,19.5,77.1,25.8z M89.4,21.4h13.8v13.8H89.4V21.4
				z M105.9,13.6h11.6v11.6h-11.6L105.9,13.6z"/>
		</g>
		<g id="Layer_3-2">
			<path class="st8" d="M38.8,63.3c-0.7,0-1.2-0.5-1.2-1.2c0,0,0-0.1,0-0.1v-5c0.1-0.7,0.7-1.2,1.4-1.1C39.5,56,40,56.4,40,57v5
				C40,62.7,39.4,63.3,38.8,63.3z"/>
			<path class="st8" d="M61.9,63.3c-0.7,0-1.2-0.5-1.2-1.1c0,0,0-0.1,0-0.1v-5c0-0.7,0.6-1.2,1.2-1.2c0.7,0,1.2,0.6,1.2,1.2v5
				C63.1,62.7,62.6,63.3,61.9,63.3z"/>
			<path class="st9" d="M38.8,55.8v7.4c0.7,0,1.2-0.5,1.3-1.2c0,0,0-0.1,0-0.1v-5C39.9,56.3,39.4,55.8,38.8,55.8z"/>
			<path class="st9" d="M61.9,55.8v7.4c0.7,0,1.2-0.5,1.3-1.2c0,0,0-0.1,0-0.1v-5C63.1,56.3,62.6,55.8,61.9,55.8z"/>
			<path class="st10" d="M61.9,58.3c-0.5,0-0.9-0.3-1.2-0.7l-6.7-13.3c-0.2-0.4-0.2-0.9,0.1-1.2c0.2-0.4,0.6-0.6,1-0.6h13.3
				c0.4,0,0.8,0.2,1,0.6c0.2,0.4,0.2,0.8,0.1,1.2l-6.5,13.4C62.9,58.1,62.4,58.3,61.9,58.3z"/>
			<path class="st11" d="M68.5,42.5h-6.7v15.8c0.5,0,0.9-0.3,1.1-0.7l6.7-13.3c0.2-0.4,0.2-0.9-0.2-1.2
				C69.3,42.7,68.9,42.5,68.5,42.5z"/>
			
				<linearGradient id="SVGID_2_" gradientUnits="userSpaceOnUse" x1="33.31" y1="-1102.8693" x2="49.05" y2="-1102.8693" gradientTransform="matrix(1 0 0 -1 -2.48 -1052.52)">
				<stop  offset="0" style="stop-color:#1C75BC"/>
				<stop  offset="1" style="stop-color:#00AEEF"/>
			</linearGradient>
			<path class="st12" d="M45.3,58.3H32.1c-0.4,0-0.8-0.3-1-0.6c-0.2-0.4-0.2-0.8-0.1-1.2l6.7-13.3c0.3-0.6,1.1-0.9,1.7-0.6
				c0.3,0.1,0.5,0.3,0.6,0.6l6.7,13.3c0.2,0.4,0.2,0.9-0.1,1.2C46.3,58.1,45.8,58.3,45.3,58.3z"/>
			
				<linearGradient id="SVGID_3_" gradientUnits="userSpaceOnUse" x1="41.2" y1="-1102.905" x2="49.07" y2="-1102.905" gradientTransform="matrix(1 0 0 -1 -2.48 -1052.52)">
				<stop  offset="0" style="stop-color:#1C75BC"/>
				<stop  offset="1" style="stop-color:#00AEEF"/>
			</linearGradient>
			<path class="st13" d="M39.8,43.2c-0.2-0.5-0.6-0.8-1.1-0.8v15.8h6.7c0.4,0,0.8-0.3,1-0.6c0.2-0.4,0.2-0.8,0.1-1.2L39.8,43.2z"/>
			<path class="st14" d="M50.5,67c-0.6,0.1-1.2-0.3-1.2-1c0,0,0,0,0,0V33.2c0.1-0.6,0.6-1.1,1.2-1c0.6-0.1,1.2,0.4,1.2,1
				c0,0,0,0.1,0,0.1v32.7C51.7,66.5,51.2,67,50.5,67C50.5,67,50.5,67,50.5,67z"/>
			<path class="st15" d="M51.7,66V33.2c-0.1-0.6-0.6-1.1-1.2-1V67C51.2,67,51.7,66.5,51.7,66z"/>
			<path class="st8" d="M38.8,45c-2.8,0-5-2.2-5-5s2.2-5,5-5s5,2.2,5,5S41.5,45,38.8,45z"/>
			<path class="st8" d="M61.9,45c-2.8,0-5-2.2-5-5s2.2-5,5-5c2.8,0,5,2.2,5,5S64.7,45,61.9,45z"/>
			<path class="st9" d="M38.8,35.1V45c2.8,0,5-2.2,5-5C43.7,37.3,41.5,35.1,38.8,35.1C38.8,35.1,38.8,35.1,38.8,35.1z"/>
			<path class="st9" d="M61.9,35.1V45c2.8,0,5-2.2,5-5C66.9,37.3,64.7,35.1,61.9,35.1C62,35.1,62,35.1,61.9,35.1z"/>
		</g>
	</g>
</g>
</svg>
